<svg width="749" height="57" viewBox="0 0 749 57" fill="none" xmlns="http://www.w3.org/2000/svg">
<path d="M28.5391 45.9627V57C47.1807 57 61.6875 38.9883 55.5864 19.4191C52.875 10.8872 46.0962 4.04822 37.5547 1.40738C18.0317 -4.6868 0 9.87155 0 28.4927H11.0493C11.0493 16.846 22.6411 7.77243 34.979 12.2415C39.5205 13.8666 43.1812 17.5232 44.8081 22.0599C49.2822 34.3838 40.2661 45.9627 28.5391 45.9627Z" fill="#081B4B"/>
<path d="M17.5547 46.0309H28.5366V35.0614H17.5547V46.0309Z" fill="#081B4B"/>
<path d="M17.5537 54.4984H9.08008V46.0342H17.5537V54.4984Z" fill="#081B4B"/>
<path d="M1.96924 46.0349H9.01904V38.9927H1.96924V46.0349Z" fill="#081B4B"/>
<path fill-rule="evenodd" clip-rule="evenodd" d="M100.516 16.5206C97.2954 14.3193 93.2695 13.1854 88.5732 13.1854H78.3745V45.4698H88.5732C93.2695 45.4698 97.2954 44.2691 100.516 41.9345C102.26 40.6671 103.669 38.9329 104.608 36.7316C105.548 34.5304 106.084 31.9957 106.084 29.1275C106.084 26.2592 105.615 23.7245 104.608 21.59C103.669 19.3888 102.327 17.6545 100.516 16.5206ZM84.4189 18.5918H87.5723C91.1284 18.5918 94.0806 19.2588 96.2944 20.6596C98.7773 22.1271 100.052 24.9953 100.052 29.0642C100.052 33.2665 98.7773 36.2014 96.2944 37.8023C94.1475 39.2031 91.2627 39.9368 87.6396 39.9368H84.4189V18.5918Z" fill="#081B4B"/>
<path d="M110.78 13.7198C111.451 13.0527 112.256 12.7192 113.263 12.7192C114.202 12.7192 115.074 13.1194 115.812 13.7198C116.483 14.3868 116.819 15.1872 116.819 16.1878C116.819 17.1883 116.483 18.0555 115.812 18.7225C115.074 19.3895 114.27 19.7231 113.263 19.7231C112.256 19.7231 111.384 19.3895 110.713 18.7225C110.042 17.9888 109.707 17.1883 109.707 16.1878C109.707 15.1872 110.109 14.3868 110.78 13.7198Z" fill="#081B4B"/>
<path d="M110.312 22.6552H116.083V45.401H110.312V22.6552Z" fill="#081B4B"/>
<path fill-rule="evenodd" clip-rule="evenodd" d="M131.171 22.1891C133.25 22.1891 135.196 23.0563 136.941 24.5904V22.656H142.577V43.334C142.577 46.7359 141.503 49.5375 139.49 51.6053C137.478 53.6731 134.727 54.7403 131.305 54.7403C128.822 54.7403 126.608 54.14 124.931 53.0727C123.253 52.0055 121.979 50.8715 121.106 49.6709L120.972 49.5375L124.864 45.8021C126.944 48.4702 128.554 49.5375 131.238 49.5375C132.915 49.5375 134.324 49.0038 135.331 48.0033C136.27 47.0027 136.807 45.5353 136.807 43.6676V43.1339C135.196 44.3346 133.318 44.9349 131.104 44.9349C127.95 44.9349 125.267 43.8677 123.253 41.7332C121.241 39.532 120.234 36.7971 120.234 33.5954C120.234 30.3269 121.241 27.5921 123.321 25.4576C125.333 23.2564 128.017 22.1891 131.171 22.1891ZM131.439 39.6671C133.117 39.6671 134.392 39.1335 135.398 37.9995C136.405 36.8655 136.941 35.3981 136.875 33.5304C136.875 31.7294 136.405 30.1952 135.398 29.0612C134.392 27.9273 133.117 27.3937 131.439 27.3937C129.83 27.3937 128.555 27.9273 127.548 29.0612C126.542 30.1952 126.072 31.6627 126.072 33.5304C126.072 35.3981 126.542 36.8655 127.548 37.9995C128.487 39.1335 129.762 39.6671 131.439 39.6671Z" fill="#081B4B"/>
<path d="M147.481 22.6553H153.252V45.4011H147.481V22.6553Z" fill="#081B4B"/>
<path d="M147.95 13.7198C148.621 13.0527 149.426 12.7192 150.432 12.7192C151.438 12.7192 152.244 13.1194 152.982 13.7198C153.653 14.3868 153.988 15.1872 153.988 16.1878C153.988 17.1883 153.653 18.0555 152.982 18.7225C152.244 19.3895 151.438 19.7231 150.432 19.7231C149.426 19.7231 148.554 19.3895 147.883 18.7225C147.212 17.9888 146.876 17.1883 146.876 16.1878C146.876 15.1872 147.279 14.3868 147.95 13.7198Z" fill="#081B4B"/>
<path d="M165.862 16.5183H160.226V22.655H156.938V27.8578H160.226V37.263C160.226 40.1979 160.83 42.3325 161.97 43.5331C163.178 44.7338 165.258 45.4008 168.143 45.4008C169.082 45.4008 170.021 45.4008 170.961 45.3341H171.229V40.1312L169.283 40.2646C167.941 40.2646 167.002 39.9978 166.533 39.5309C166.063 39.064 165.862 38.0634 165.862 36.5293V27.9245H171.229V22.7217H165.862V16.5183Z" fill="#081B4B"/>
<path d="M203.976 13.1158H198.206V45.4002H203.976V13.1158Z" fill="#081B4B"/>
<path d="M262.01 37.2641C261.003 38.398 259.93 39.3986 259.125 39.9322C258.319 40.4658 257.313 40.6659 256.172 40.6659C254.495 40.6659 253.086 40.0656 252.013 38.7982C250.939 37.5309 250.335 35.93 250.335 33.9956C250.335 32.0612 250.872 30.4603 251.946 29.193C253.019 27.9256 254.428 27.3253 256.105 27.3253C257.984 27.3253 259.93 28.4592 261.607 30.4603L265.432 26.8583C262.949 23.6566 259.795 22.1891 256.038 22.1891C252.885 22.1891 250.134 23.3231 247.92 25.591C245.706 27.8589 244.565 30.6604 244.565 34.0623C244.565 37.4642 245.706 40.3324 247.92 42.5336C250.134 44.8015 252.885 45.9355 256.038 45.9355C260.198 45.9355 263.553 44.1345 265.834 40.866L262.01 37.2641Z" fill="#081B4B"/>
<path fill-rule="evenodd" clip-rule="evenodd" d="M282.341 23.127C283.683 23.794 284.823 24.7278 285.628 25.8618C286.434 26.9958 287.038 28.1964 287.574 29.5972C287.977 30.9313 288.178 32.332 288.178 33.7995L288.111 35.8673H272.88C273.015 37.3348 273.551 38.4687 274.491 39.3359C275.497 40.2697 276.772 40.7366 278.382 40.7366C279.456 40.7366 280.395 40.4698 281.268 40.0696C281.871 39.8028 282.408 39.4026 282.945 38.869C282.982 38.8258 283.021 38.7827 283.06 38.7397C283.111 38.683 283.164 38.6263 283.218 38.5699C283.346 38.4367 283.479 38.3046 283.609 38.1752C283.835 37.9507 284.052 37.7345 284.22 37.5349L287.977 41.1369L287.843 41.2703C285.427 44.3386 282.274 45.8728 278.382 45.8728C274.96 45.8728 272.143 44.7388 270.062 42.6043C267.983 40.4031 266.909 37.6016 266.909 34.133C266.909 30.7979 267.849 27.9296 269.794 25.595C271.74 23.3271 274.356 22.1264 277.577 22.1264C279.389 22.1264 280.999 22.46 282.341 23.127ZM274.557 28.5276C273.886 29.1946 273.349 30.1284 273.081 31.1957V31.2624H281.938C281.87 30.1952 281.468 29.328 280.797 28.5943C280.059 27.7938 278.985 27.3936 277.576 27.3936C276.369 27.3936 275.362 27.7938 274.557 28.5276Z" fill="#081B4B"/>
<path fill-rule="evenodd" clip-rule="evenodd" d="M307.707 24.3903C305.962 22.9229 303.547 22.1891 300.527 22.1891C298.582 22.1891 296.837 22.5893 295.227 23.3898C293.751 24.1235 292.275 25.3909 291.335 27.0584L291.403 27.1252L295.093 30.6604C296.636 28.2591 298.313 27.392 300.527 27.392C301.735 27.392 302.742 27.7255 303.479 28.3258C304.218 28.9261 304.62 29.7266 304.62 30.7939V31.9278C303.211 31.5276 301.802 31.2608 300.393 31.2608C297.508 31.2608 295.227 31.9278 293.482 33.2619C291.738 34.5959 290.866 36.5303 290.866 38.9316C290.866 41.0661 291.604 42.8004 293.08 44.0678C294.556 45.3351 296.435 45.9355 298.649 45.9355C300.863 45.9355 302.875 45.0683 304.754 43.5342V45.4019H310.39V30.7939C310.323 27.9923 309.451 25.8578 307.707 24.3903ZM297.504 36.7304C298.175 36.2635 299.047 36.0634 300.255 36.0634C301.664 36.0634 303.14 36.3302 304.616 36.8638V39.065C303.341 40.1989 301.664 40.7993 299.651 40.7993C298.645 40.7993 297.906 40.5992 297.37 40.1323C296.833 39.732 296.564 39.1984 296.564 38.4647C296.564 37.7309 296.833 37.1306 297.504 36.7304Z" fill="#081B4B"/>
<path d="M325.75 22.1194C328.636 22.1194 330.85 22.9866 332.46 24.7876C334.07 26.5886 334.875 29.0566 334.875 32.1916V45.3322H329.105V32.1916C329.105 30.6575 328.77 29.4568 328.032 28.5897C327.294 27.7225 326.288 27.3223 325.013 27.3223C323.537 27.3223 322.396 27.7892 321.591 28.7898C320.786 29.7903 320.383 31.1244 320.383 32.8587V45.3989H314.613V22.6531H320.249V24.0538C321.591 22.7865 323.469 22.1194 325.75 22.1194Z" fill="#081B4B"/>
<path fill-rule="evenodd" clip-rule="evenodd" d="M190.965 24.3903C189.22 22.9229 186.805 22.1891 183.786 22.1891C181.84 22.1891 180.096 22.5893 178.485 23.3898C177.009 24.1235 175.533 25.3909 174.594 27.0584L174.661 27.1252L178.351 30.6604C179.894 28.2591 181.572 27.392 183.786 27.392C184.993 27.392 186 27.7255 186.738 28.3258C187.476 28.9261 187.878 29.7266 187.878 30.7939V31.9278C186.469 31.5276 185.061 31.2608 183.651 31.2608C180.767 31.2608 178.485 31.9278 176.741 33.2619C174.997 34.5959 174.124 36.5303 174.124 38.9316C174.124 41.0661 174.862 42.8004 176.338 44.0678C177.814 45.3351 179.693 45.9355 181.907 45.9355C184.121 45.9355 186.134 45.0683 188.013 43.5342V45.4019H193.648V30.7939C193.582 27.9923 192.709 25.8578 190.965 24.3903ZM180.762 36.7304C181.433 36.2635 182.305 36.0634 183.513 36.0634C184.922 36.0634 186.398 36.3302 187.874 36.8638V39.065C186.599 40.1989 184.922 40.7993 182.909 40.7993C181.903 40.7993 181.165 40.5992 180.628 40.1323C180.091 39.732 179.823 39.1984 179.823 38.4647C179.823 37.7309 180.091 37.1306 180.762 36.7304Z" fill="#081B4B"/>
<path fill-rule="evenodd" clip-rule="evenodd" d="M208.067 29.2587C208.067 38.3971 215.582 45.8679 224.773 45.8679C234.033 45.8679 241.48 38.3971 241.48 29.2587C241.48 20.1204 233.965 12.6496 224.773 12.6496C215.582 12.6496 208.067 20.1204 208.067 29.2587ZM213.967 29.1919C213.967 23.2553 218.798 18.4527 224.77 18.4527C230.741 18.4527 235.572 23.2553 235.572 29.1919C235.572 35.1285 230.741 39.9311 224.77 39.9311C218.798 39.9311 213.967 35.1285 213.967 29.1919Z" fill="#081B4B"/>
<path d="M382.875 19.5C383.428 19.5 383.875 19.9477 383.875 20.5V27.5H390.875C391.428 27.5 391.875 27.9477 391.875 28.5C391.875 29.0523 391.428 29.5 390.875 29.5H383.875V36.5C383.875 37.0523 383.428 37.5 382.875 37.5C382.323 37.5 381.875 37.0523 381.875 36.5V29.5H374.875C374.323 29.5 373.875 29.0523 373.875 28.5C373.875 27.9477 374.323 27.5 374.875 27.5H381.875V20.5C381.875 19.9477 382.323 19.5 382.875 19.5Z" fill="#081B4B"/>
<path d="M447.758 33.361L438.24 40.3988C437.097 41.166 436.209 41.6779 435.067 41.6779C432.781 41.6779 430.877 39.6304 430.877 37.3309C430.877 35.4117 432.401 34.0044 433.797 33.3643L444.967 28.5022L433.795 23.5097C432.272 22.8696 430.875 21.4622 430.875 19.5431C430.875 17.2402 432.907 15.321 435.188 15.321C436.331 15.321 437.092 15.7047 438.234 16.6001L447.758 23.6379L446.488 12.251C446.107 9.56348 447.889 7.38889 450.423 7.38889C452.956 7.38889 454.735 9.43524 454.358 12.1227L453.088 23.6379L462.605 16.6001C463.748 15.7047 464.637 15.321 465.779 15.321C466.887 15.331 467.947 15.779 468.73 16.5686C469.514 17.3582 469.958 18.4264 469.968 19.5431C469.968 21.5905 468.572 22.8696 467.048 23.5097L455.88 28.4989L467.05 33.361C468.574 34.0011 469.97 35.4084 469.97 37.4559C469.97 39.7587 467.939 41.6779 465.658 41.6779C464.642 41.6779 463.753 41.166 462.611 40.3988L453.091 33.361L454.358 44.7479C454.735 47.4376 452.961 49.6111 450.423 49.6111C447.884 49.6111 446.11 47.5637 446.488 44.8773L447.758 33.361Z" fill="#081B4B"/>
<path d="M506.589 36.9974C507.052 36.5797 507.651 36.3505 508.271 36.3535C508.957 36.3562 509.615 36.6301 510.105 37.1172C510.596 37.6042 510.881 38.2663 510.9 38.9632C510.897 39.3449 510.815 39.7217 510.66 40.0692C510.504 40.4167 510.279 40.7271 509.998 40.9802C507.021 43.6412 503.634 45.2879 498.538 45.2879C489.337 45.2879 482.48 37.9831 482.48 28.7638V28.6727C482.48 19.5502 489.208 12.0802 498.74 12.0802C503.612 12.0802 506.819 13.5446 509.566 15.6984C509.904 15.9626 510.178 16.3027 510.366 16.6921C510.553 17.0816 510.65 17.5098 510.648 17.9434C510.626 18.4548 510.47 18.9508 510.194 19.3793C509.919 19.8079 509.535 20.1531 509.083 20.3787C508.631 20.6043 508.127 20.702 507.625 20.6615C507.124 20.621 506.641 20.4438 506.23 20.1485C504.146 18.2899 501.468 17.2634 498.695 17.2597C492.701 17.2597 488.277 22.3138 488.277 28.5815V28.6727C488.277 34.9803 492.656 40.0686 498.695 40.0686C502.036 40.0686 504.29 38.9689 506.589 36.9974Z" fill="#081B4B"/>
<path d="M521.396 21.0887C521.396 23.5616 522.837 24.6613 528.931 26.1314C535.603 27.7781 539.062 30.2111 539.045 35.5273V35.6185C539.045 41.6241 534.397 45.2024 527.765 45.2024C523.485 45.2079 519.321 43.7912 515.907 41.1683C515.57 40.9233 515.296 40.5999 515.108 40.2251C514.92 39.8504 514.823 39.4352 514.825 39.0144C514.844 38.5231 514.993 38.046 515.257 37.6339C515.521 37.2219 515.89 36.8902 516.325 36.674C516.759 36.4578 517.244 36.3653 517.726 36.4062C518.208 36.447 518.67 36.6198 519.063 36.9062C521.534 39.0349 524.667 40.2039 527.905 40.2053C531.348 40.2053 533.512 38.5529 533.512 36.1712V36.08C533.512 33.7837 532.25 32.5473 526.386 31.1741C519.664 29.5217 515.879 27.5046 515.879 21.5901V21.4989C515.879 15.9947 520.387 12.1942 526.655 12.1942C530.214 12.1219 533.709 13.1621 536.668 15.1742C537.049 15.4048 537.362 15.7344 537.576 16.129C537.79 16.5236 537.896 16.9689 537.885 17.4192C537.883 17.7656 537.814 18.1083 537.682 18.4276C537.55 18.7468 537.357 19.0363 537.114 19.2794C536.871 19.5225 536.583 19.7143 536.268 19.8439C535.951 19.9735 535.613 20.0383 535.272 20.0346C534.761 20.0371 534.26 19.8929 533.826 19.6186C531.364 18.0118 529.021 17.1913 526.537 17.1913C523.291 17.1913 521.396 18.8836 521.396 20.9975V21.0887Z" fill="#081B4B"/>
<path d="M549.362 21.0887C549.362 23.5616 550.803 24.6613 556.892 26.1314C563.569 27.7781 566.995 30.2111 566.983 35.5273V35.6185C566.983 41.6241 562.341 45.2024 555.708 45.2024C551.427 45.2066 547.262 43.7901 543.845 41.1683C543.509 40.9223 543.236 40.5987 543.048 40.2242C542.86 39.8496 542.762 39.435 542.763 39.0144C542.783 38.5229 542.933 38.0461 543.198 37.6343C543.462 37.2225 543.832 36.8911 544.267 36.6751C544.702 36.459 545.186 36.3665 545.668 36.4072C546.15 36.4479 546.613 36.6203 547.007 36.9062C549.476 39.0336 552.606 40.2025 555.843 40.2053C559.286 40.2053 561.45 38.5529 561.45 36.1712V36.08C561.45 33.7837 560.188 32.5473 554.324 31.1741C547.601 29.5217 543.811 27.5046 543.811 21.5901V21.4989C543.811 15.9947 548.325 12.1942 554.593 12.1942C558.162 12.116 561.667 13.1565 564.634 15.1742C565.015 15.4048 565.328 15.7344 565.542 16.129C565.756 16.5236 565.862 16.9689 565.851 17.4192C565.849 17.7656 565.78 18.1083 565.648 18.4276C565.516 18.7468 565.323 19.0363 565.08 19.2794C564.934 19.4255 564.772 19.5531 564.597 19.6598C564.481 19.7306 564.359 19.7922 564.233 19.8439C563.917 19.9735 563.579 20.0383 563.238 20.0346C562.727 20.0371 562.226 19.8929 561.792 19.6186C559.33 18.0118 556.981 17.1913 554.503 17.1913C551.257 17.1913 549.362 18.8836 549.362 20.9975V21.0887Z" fill="#081B4B"/>
<path d="M573.986 27.9661H582.469C583.159 27.9982 583.811 28.2995 584.288 28.8073C584.766 29.3151 585.032 29.9903 585.032 30.6926C585.032 31.3949 584.766 32.0701 584.288 32.5779C583.811 33.0857 583.159 33.387 582.469 33.4191H573.986C573.296 33.387 572.644 33.0857 572.167 32.5779C571.689 32.0701 571.423 31.3949 571.423 30.6926C571.423 29.9903 571.689 29.3151 572.167 28.8073C572.644 28.2995 573.296 27.9982 573.986 27.9661Z" fill="#081B4B"/>
<path d="M587.066 12.65H608.024C608.685 12.6814 609.309 12.9704 609.766 13.4568C610.222 13.9434 610.477 14.59 610.477 15.2625C610.477 15.935 610.222 16.5817 609.766 17.0682C609.309 17.5547 608.685 17.8437 608.024 17.875H600.337V42.1768C600.337 42.9324 600.042 43.657 599.516 44.1913C598.99 44.7256 598.277 45.0258 597.534 45.0258C596.791 45.0258 596.077 44.7256 595.552 44.1913C595.026 43.657 594.73 42.9324 594.73 42.1768V17.875H587.066C586.719 17.8915 586.371 17.8362 586.045 17.7124C585.719 17.5885 585.421 17.3987 585.169 17.1545C584.917 16.9103 584.717 16.6167 584.58 16.2915C584.491 16.0799 584.43 15.8577 584.398 15.6309C584.381 15.5092 584.373 15.3861 584.373 15.2625C584.373 14.9088 584.443 14.5587 584.58 14.2336C584.717 13.9084 584.917 13.6147 585.169 13.3705C585.421 13.1263 585.719 12.9366 586.045 12.8127C586.371 12.6889 586.719 12.6335 587.066 12.65Z" fill="#081B4B"/>
<path fill-rule="evenodd" clip-rule="evenodd" d="M618.547 12.65H629.822C633.814 12.65 636.903 13.8409 638.928 15.858C639.79 16.7805 640.465 17.8668 640.915 19.0547C641.364 20.2426 641.578 21.5088 641.546 22.781V22.8722C641.546 28.0117 638.614 31.1285 634.375 32.4561L640.419 40.2053C640.97 40.7864 641.291 41.5529 641.322 42.3591C641.316 42.7086 641.242 43.0535 641.105 43.374C640.968 43.6946 640.771 43.9846 640.523 44.2275C640.276 44.4703 639.984 44.6613 639.664 44.7895C639.344 44.9177 639.002 44.9805 638.658 44.9745C638.122 44.9818 637.592 44.8508 637.118 44.5937C636.645 44.3367 636.243 43.9619 635.95 43.5044L628.286 33.5558H621.295V42.1825C621.2 42.8616 620.866 43.483 620.356 43.9326C619.847 44.3821 619.194 44.6296 618.52 44.6296C617.844 44.6296 617.192 44.3821 616.682 43.9326C616.172 43.483 615.839 42.8616 615.744 42.1825V15.499C615.738 15.1232 615.807 14.7499 615.945 14.4015C616.084 14.0531 616.29 13.7365 616.552 13.4707C616.813 13.205 617.125 12.9953 617.468 12.8543C617.811 12.7133 618.178 12.6439 618.547 12.65ZM629.419 28.553C633.388 28.553 635.911 26.4448 635.911 23.1912V23.1058C635.911 19.6642 633.478 17.7839 629.374 17.7839H621.3V28.553H629.419Z" fill="#081B4B"/>
<path d="M649.95 12.617C650.291 12.48 650.655 12.4137 651.021 12.4221C651.382 12.4206 651.74 12.4918 652.073 12.6317C652.407 12.7715 652.71 12.9772 652.965 13.2368C653.22 13.4965 653.422 13.8049 653.559 14.1443C653.695 14.4837 653.765 14.8473 653.763 15.2141V42.1768C653.73 42.9022 653.424 43.587 652.908 44.0888C652.392 44.5905 651.705 44.8705 650.99 44.8705C650.276 44.8705 649.589 44.5905 649.072 44.0888C648.556 43.587 648.25 42.9022 648.218 42.1768V15.2198C648.216 14.8476 648.288 14.4789 648.429 14.1353C648.57 13.7918 648.777 13.4805 649.039 13.2197C649.3 12.9589 649.61 12.754 649.95 12.617Z" fill="#081B4B"/>
<path d="M684.476 36.9974C684.938 36.5783 685.538 36.3488 686.158 36.3535C686.849 36.3549 687.511 36.6312 688.004 37.1233C688.497 37.6154 688.78 38.2841 688.793 38.986C688.79 39.3677 688.708 39.7445 688.552 40.092C688.397 40.4395 688.171 40.7499 687.89 41.003C684.913 43.664 681.532 45.3107 676.436 45.3107C667.23 45.3107 660.378 38.0059 660.378 28.7866V28.6955C660.378 19.573 667.073 12.103 676.638 12.103C681.51 12.103 684.711 13.5674 687.464 15.7212C687.8 15.9872 688.073 16.3276 688.26 16.7166C688.448 17.1057 688.545 17.533 688.546 17.9662C688.548 18.3319 688.477 18.6943 688.339 19.0319C688.201 19.3695 687.997 19.6756 687.741 19.932C687.484 20.1885 687.18 20.3902 686.845 20.5252C686.511 20.6603 686.153 20.7259 685.793 20.7183C685.186 20.7238 684.594 20.5233 684.111 20.1485C682.029 18.2903 679.353 17.2637 676.582 17.2597C670.583 17.2597 666.159 22.3138 666.159 28.5815V28.6727C666.159 34.9803 670.538 40.0686 676.582 40.0686C679.917 40.0686 682.171 38.9689 684.476 36.9974Z" fill="#081B4B"/>
<path d="M718.979 17.1457L709.145 26.7695L719.82 40.2053C720.307 40.7613 720.578 41.4783 720.583 42.2224C720.583 42.5923 720.511 42.9586 720.369 43.2994C720.285 43.5009 720.178 43.6911 720.051 43.866C719.962 43.9868 719.864 44.1003 719.757 44.2053C719.496 44.4623 719.186 44.6629 718.846 44.7951C718.506 44.9273 718.143 44.9883 717.779 44.9745C717.31 44.9709 716.848 44.8475 716.438 44.6155C716.027 44.3835 715.681 44.0504 715.43 43.6469L705.282 30.4846L700.141 35.5273V42.1711C700.108 42.8965 699.802 43.5813 699.286 44.0831C698.77 44.5848 698.083 44.8648 697.368 44.8648C696.654 44.8648 695.967 44.5848 695.45 44.0831C694.934 43.5813 694.628 42.8965 694.596 42.1711V15.2141C694.628 14.4887 694.934 13.8039 695.45 13.3022C695.967 12.8004 696.654 12.5204 697.368 12.5204C698.083 12.5204 698.77 12.8004 699.286 13.3022C699.802 13.8039 700.108 14.4887 700.141 15.2141V28.7866L715.11 13.5047C715.387 13.1613 715.737 12.8857 716.133 12.6983C716.529 12.5109 716.961 12.4165 717.398 12.4221C717.737 12.4175 718.073 12.4818 718.387 12.6113C718.701 12.7408 718.986 12.9327 719.226 13.1759C719.465 13.4191 719.655 13.7085 719.783 14.0273C719.911 14.346 719.975 14.6875 719.971 15.0318C719.968 15.4365 719.878 15.8356 719.707 16.2009C719.535 16.5662 719.287 16.8887 718.979 17.1457Z" fill="#081B4B"/>
<path d="M730.658 21.0887C730.658 23.5616 732.099 24.6613 738.187 26.1314H738.204C744.881 27.7781 748.307 30.2111 748.324 35.5273V35.6185C748.324 41.6241 743.682 45.2024 737.049 45.2024C732.769 45.2079 728.605 43.7912 725.191 41.1683C724.854 40.9236 724.579 40.6003 724.39 40.2256C724.201 39.8509 724.103 39.4356 724.104 39.0144C724.124 38.5229 724.273 38.0461 724.539 37.6343C724.803 37.2225 725.172 36.8911 725.607 36.6751C726.042 36.459 726.526 36.3665 727.009 36.4072C727.491 36.4479 727.954 36.6203 728.348 36.9062C730.816 39.0336 733.947 40.2025 737.184 40.2053C740.626 40.2053 742.79 38.5529 742.79 36.1712V36.08C742.79 33.7837 741.529 32.5473 735.664 31.1741C728.942 29.5217 725.152 27.5046 725.152 21.5901V21.4989C725.152 15.9947 729.665 12.1942 735.933 12.1942C739.493 12.1219 742.988 13.1621 745.947 15.1742C746.324 15.407 746.634 15.7375 746.845 16.1319C747.056 16.5263 747.16 16.9706 747.146 17.4192C747.145 17.7656 747.076 18.1083 746.944 18.4276C746.812 18.7468 746.619 19.0363 746.375 19.2794C746.133 19.5225 745.845 19.7143 745.529 19.8439C745.213 19.9735 744.875 20.0383 744.534 20.0346C744.023 20.0371 743.521 19.8929 743.087 19.6186C740.626 18.0118 738.283 17.1913 735.799 17.1913C732.553 17.1913 730.658 18.8836 730.658 20.9975V21.0887Z" fill="#081B4B"/>
</svg>
